<svg xmlns="http://www.w3.org/2000/svg" viewBox="0 0 3180.44 754.29"><defs><style>.cls-1{fill:#000;}</style></defs><g id="Layer_1_copy_2" data-name="Layer 1 copy 2"><polygon points="986.9 246.73 1022.15 317.22 1233.63 0 493.45 0 0 740.18 740.18 740.18 881.16 528.7 740.18 246.73 986.9 246.73"/><polygon points="881.16 528.7 986.9 740.18 1233.63 740.18 1022.15 317.22 881.16 528.7"/><path class="cls-1" d="M1358.52,2h43.26c27.62,0,42.45,14,42.45,40.21V104c0,26.2-14.83,40.21-42.45,40.21h-43.26Zm42.86,117.38c10.15,0,14.41-4.47,14.41-15V41.84c0-10.57-4.26-15-14.41-15H1387v92.6Z"/><path class="cls-1" d="M1464.12,2h28.43V144.19h-28.43Z"/><path class="cls-1" d="M1512.66,105.6V41c0-25.79,15.63-41,42.24-41s42.24,15.23,42.24,41v8.13h-26.81V40c0-9.55-5.07-15.23-14.62-15.23s-14.62,5.68-14.62,15.23v66.2c0,9.55,5.08,15.23,14.62,15.23s14.62-5.68,14.62-15.23V88.75h-14V63h40.82V105.6c0,25.59-15.64,40.62-42.24,40.62S1512.66,131.19,1512.66,105.6Z"/><path class="cls-1" d="M1616.83,2h28.44V144.19h-28.44Z"/><path class="cls-1" d="M1690.76,26.81H1661.1V2h87.74V26.81h-29.65V144.19h-28.43Z"/><path class="cls-1" d="M1809,118.4h-31.89l-4.67,25.79h-27L1774.83,2h38.38l29.45,142.16h-29ZM1804.48,94,1792.9,30.46,1781.53,94Z"/><path class="cls-1" d="M1857.88,2h28.44V119.41H1933v24.78h-75.15Z"/><path class="cls-1" d="M1985.41,2h77.38V26.81h-48.94v32.9h39V84.48h-39v34.93h48.94v24.78h-77.38Z"/><path class="cls-1" d="M2106.65,71.28,2075.17,2h30.67l18.28,44.68L2143,2h27.42l-31.48,69.25,32.9,72.91h-30.46l-19.91-48.54-20.3,48.54h-27.42Z"/><path class="cls-1" d="M2186.86,2h41.84c28.63,0,42.24,12.59,42.24,39.2v8.53c0,26.8-13.61,39.39-42.24,39.39h-13.4v55h-28.44Zm41.84,62.35c9.75,0,13.81-4.27,13.81-14.62V41.23c0-10.16-4.06-14.42-13.81-14.42h-13.4V64.38Z"/><path class="cls-1" d="M2287.79,2h77.38V26.81h-49v32.9h39V84.48h-39v34.93h49v24.78h-77.38Z"/><path class="cls-1" d="M2382.63,2h42c28.44,0,42,11.58,42,36.15v5.48c0,15-5.89,24.37-18.48,29.25v.61c13,3.45,18.69,14,18.69,34.32v16.65c0,7.92.4,13.61,3.24,19.7h-29c-1.62-3.86-2.43-5.89-2.43-19.9V105.81c0-13.61-4.67-18.48-17.87-18.48h-9.75v56.86h-28.43Zm38.78,60.52c11.78,0,16.86-4.87,16.86-15.84V41.23c0-10-4.26-14.42-13.81-14.42h-13.4V62.55Z"/><path class="cls-1" d="M2487.82,2h28.43V144.19h-28.43Z"/><path class="cls-1" d="M2538.59,2H2616V26.81H2567v32.9h39V84.48h-39v34.93H2616v24.78h-77.37Z"/><path class="cls-1" d="M2633.42,2h35.13L2697,84.28V2h25.38V144.19h-28.63L2658.81,43.05V144.19h-25.39Z"/><path class="cls-1" d="M2742.47,105.2V41c0-26.4,15-41,41.84-41s41.63,14.62,41.63,41V51.38h-26.81V40c0-10.36-5.08-16-14.22-16-8.93,0-14,5.69-14,16v66.2c0,10.36,5.08,16.05,14,16.05,9.14,0,14.22-5.69,14.22-16.05V90.78h26.81V105.2c0,26.4-14.83,41-41.63,41S2742.47,131.6,2742.47,105.2Z"/><path class="cls-1" d="M2844,2h77.37V26.81h-48.94v32.9h39V84.48h-39v34.93h48.94v24.78H2844Z"/><path class="cls-1" d="M1359.72,237h80.14V747h-80.14Z"/><path class="cls-1" d="M1725.46,476.69V747h-77.23V485.44c0-32.06-8.74-48.82-32.06-48.82-21.85,0-39.34,15.3-39.34,59.74V747H1499.6V375.42h67l1.46,43c13.11-32.06,40.07-50.28,74.31-50.28C1694.13,368.13,1725.46,400.19,1725.46,476.69Z"/><path class="cls-1" d="M1882.11,330.25v45.17h56.1V441h-56.1V747h-77.24V441h-42.25V375.42h42.25V320c0-60.47,29.88-90.34,91.08-90.34,16,0,29.14,2.19,42.26,7.29v65.57a89.51,89.51,0,0,0-26.23-4.37C1890.12,298.19,1882.11,306.93,1882.11,330.25Z"/><path class="cls-1" d="M1967.35,633.34V489.08c0-77.23,40.8-120.95,113.66-120.95s113.66,43.72,113.66,121V633.34c0,77.23-40.8,120.95-113.66,120.95S1967.35,710.57,1967.35,633.34Zm150.09,7.29V481.79c0-25.5-8-45.17-36.43-45.17s-36.43,19.67-36.43,45.17V640.63c0,26.22,8.75,45.17,36.43,45.17S2117.44,666.85,2117.44,640.63Z"/><path class="cls-1" d="M2363.69,237h80.15V444.63h86V237H2610V747h-80.15V517.49h-86V747h-80.15Z"/><path class="cls-1" d="M2893.38,375.42V747h-67l-1.46-43c-13.11,32.06-40.07,50.28-74.31,50.28-51.73,0-83.06-32.06-83.06-108.56V375.42h77.23V637c0,32.06,8.74,48.82,32.06,48.82,21.85,0,39.34-15.3,39.34-59.75V375.42Z"/><path class="cls-1" d="M3180.44,476.69v169c0,76.5-32.79,108.56-84.52,108.56-35.7,0-64.11-21.13-76.5-56.83L3009.22,747h-56.1V237h77.23V402.38c15.3-21.86,37.89-34.25,65.57-34.25C3147.65,368.13,3180.44,400.19,3180.44,476.69Zm-77.23,5.1c0-25.5-7.29-45.17-32.79-45.17-21.86,0-40.07,16-40.07,59.74V626.05c0,43.72,18.21,59.75,40.07,59.75,25.5,0,32.79-19.67,32.79-45.17Z"/></g></svg>