<svg xmlns="http://www.w3.org/2000/svg" viewBox="0 0 1265.86 1111.09"><defs><style>.cls-1{fill:#1d1d1b;}</style></defs><g id="Layer_1_copy" data-name="Layer 1 copy"><polygon points="1003.02 246.73 1038.26 317.22 1249.74 0 509.57 0 16.11 740.18 756.29 740.18 897.28 528.7 756.29 246.73 1003.02 246.73"/><polygon points="897.28 528.7 1003.02 740.18 1249.74 740.18 1038.26 317.22 897.28 528.7"/><path class="cls-1" d="M0,840.92H35c22.37,0,34.37,11.35,34.37,32.57v50c0,21.22-12,32.57-34.37,32.57H0ZM34.71,936c8.22,0,11.68-3.62,11.68-12.18V873.16c0-8.55-3.46-12.17-11.68-12.17H23v75Z"/><path class="cls-1" d="M85.53,840.92h23V956.06h-23Z"/><path class="cls-1" d="M124.84,924.81V872.5c0-20.89,12.67-33.22,34.22-33.22s34.21,12.33,34.21,33.22v6.58H171.56v-7.4c0-7.73-4.12-12.34-11.85-12.34s-11.84,4.61-11.84,12.34V925.3c0,7.73,4.11,12.34,11.84,12.34s11.85-4.61,11.85-12.34V911.16H160.21V890.27h33.06v34.54c0,20.73-12.67,32.9-34.21,32.9S124.84,945.54,124.84,924.81Z"/><path class="cls-1" d="M209.22,840.92h23V956.06h-23Z"/><path class="cls-1" d="M269.09,861h-24V840.92h71.06V861h-24v95.07h-23Z"/><path class="cls-1" d="M364.82,935.17H339l-3.78,20.89H313.34l23.85-115.14h31.09l23.85,115.14H368.61Zm-3.61-19.74L351.83,864l-9.21,51.48Z"/><path class="cls-1" d="M404.46,840.92h23V936h37.83v20.06H404.46Z"/><path class="cls-1" d="M507.76,840.92h62.67V861H530.79v26.65h31.58V907.7H530.79V936h39.64v20.06H507.76Z"/><path class="cls-1" d="M606,897l-25.49-56.09H605.3l14.8,36.19,15.3-36.19h22.2L632.11,897l26.64,59H634.08L618,916.75l-16.45,39.31h-22.2Z"/><path class="cls-1" d="M670.92,840.92h33.89c23.19,0,34.21,10.2,34.21,31.75v6.91c0,21.71-11,31.91-34.21,31.91H694v44.57h-23Zm33.89,50.5c7.89,0,11.18-3.46,11.18-11.84v-6.91c0-8.23-3.29-11.68-11.18-11.68H694v30.43Z"/><path class="cls-1" d="M752.67,840.92h62.67V861H775.7v26.65h31.58V907.7H775.7V936h39.64v20.06H752.67Z"/><path class="cls-1" d="M829.48,840.92h34c23,0,34.05,9.38,34.05,29.28v4.44c0,12.17-4.77,19.74-15,23.69v.49c10.53,2.8,15.14,11.35,15.14,27.8v13.49c0,6.41.33,11,2.63,15.95H876.86c-1.32-3.12-2-4.77-2-16.12V925c0-11-3.78-15-14.47-15h-7.9v46h-23Zm31.42,49c9.54,0,13.65-4,13.65-12.83v-4.44c0-8.06-3.45-11.68-11.18-11.68H852.51v29Z"/><path class="cls-1" d="M914.69,840.92h23V956.06h-23Z"/><path class="cls-1" d="M955.81,840.92h62.67V861H978.83v26.65h31.59V907.7H978.83V936h39.65v20.06H955.81Z"/><path class="cls-1" d="M1032.62,840.92h28.46l23,66.62V840.92h20.57V956.06h-23.2l-28.29-81.91v81.91h-20.56Z"/><path class="cls-1" d="M1121,924.48v-52c0-21.38,12.17-33.22,33.88-33.22s33.72,11.84,33.72,33.22v8.39h-21.71v-9.21c0-8.39-4.11-13-11.52-13-7.23,0-11.35,4.6-11.35,13V925.3c0,8.39,4.12,13,11.35,13,7.41,0,11.52-4.61,11.52-13V912.8h21.71v11.68c0,21.38-12,33.23-33.72,33.23S1121,945.86,1121,924.48Z"/><path class="cls-1" d="M1203.19,840.92h62.67V861h-39.64v26.65h31.58V907.7h-31.58V936h39.64v20.06h-62.67Z"/><path class="cls-1" d="M280.77,1094.48v-26c0-10.45,6.17-16.62,17.44-16.62s17.43,6.17,17.43,16.62v26c0,10.44-6.17,16.61-17.43,16.61S280.77,1104.92,280.77,1094.48Zm23.36.41v-26.82c0-3.86-2.06-6.16-5.92-6.16s-5.92,2.3-5.92,6.16v26.82c0,3.86,2,6.17,5.92,6.17S304.13,1098.75,304.13,1094.89Z"/><path class="cls-1" d="M340.23,1052.69h30.43v10H351.75v13.73h14.8v10h-14.8v23.77H340.23Z"/><path class="cls-1" d="M393.52,1052.69H424v10H405v13.73h14.8v10H405v23.77H393.52Z"/><path class="cls-1" d="M444.92,1095.3v-2.55h10.86v2.55c0,3.53,1.81,6.08,5.92,6.08,3.62,0,6-2.22,6-6.08,0-4.94-2-6.17-9.79-10-9.87-4.77-12.75-9.71-12.75-17.77,0-9.37,5.92-15.71,17-15.71s16.61,6.34,16.61,15.88v1.64H468v-1.56c0-3.62-1.64-6.25-5.67-6.25-3.54,0-5.59,2.3-5.59,5.84,0,4.44,2.22,5.75,9.95,9.45,10.11,4.86,12.58,10,12.58,18.18,0,9.71-6.09,16-17.35,16S444.92,1104.76,444.92,1095.3Z"/><path class="cls-1" d="M502.82,1052.69h11.52v23.36h12.33v-23.36h11.52v57.58H526.67v-24.18H514.34v24.18H502.82Z"/><path class="cls-1" d="M562.78,1094.48v-26c0-10.45,6.16-16.62,17.43-16.62s17.44,6.17,17.44,16.62v26c0,10.44-6.17,16.61-17.44,16.61S562.78,1104.92,562.78,1094.48Zm23.35.41v-26.82c0-3.86-2-6.16-5.92-6.16s-5.92,2.3-5.92,6.16v26.82c0,3.86,2.06,6.17,5.92,6.17S586.13,1098.75,586.13,1094.89Z"/><path class="cls-1" d="M622.24,1052.69h17c11.52,0,17,4.69,17,14.64v2.23c0,6.08-2.39,9.86-7.49,11.84v.25c5.26,1.39,7.57,5.67,7.57,13.89v6.75c0,3.21.16,5.51,1.31,8H645.92c-.65-1.57-1-2.39-1-8.06v-7.49c0-5.51-1.9-7.48-7.24-7.48h-4v23H622.24ZM638,1077.2c4.77,0,6.82-2,6.82-6.41v-2.22c0-4-1.73-5.84-5.59-5.84h-5.43v14.47Z"/><path class="cls-1" d="M681.29,1052.69h31.33v10H692.8v13.32h15.79v10H692.8v14.14h19.82v10H681.29Z"/><path class="cls-1" d="M776.77,1062.73h-12v-10h35.53v10h-12v47.54H776.77Z"/><path class="cls-1" d="M823.15,1052.69h31.34v10H834.67v13.32h15.79v10H834.67v14.14h19.82v10H823.15Z"/><path class="cls-1" d="M901.2,1099.82H888.29l-1.89,10.45H875.46l11.92-57.58h15.55l11.92,57.58H903.09Zm-1.81-9.87-4.69-25.74L890.1,1090Z"/><path class="cls-1" d="M937.47,1052.69h16.2l7.65,40.14,7.56-40.14h16.21v57.58H974.23v-42.85l-8.55,42.85h-9.63l-8.55-42.85v42.85h-10Z"/></g></svg>