<svg xmlns="http://www.w3.org/2000/svg" xmlns:xlink="http://www.w3.org/1999/xlink" width="1000" zoomAndPan="magnify" viewBox="0 0 750 749.999995" height="1000" preserveAspectRatio="xMidYMid meet" version="1.0"><defs><clipPath id="d760fc42e8"><path d="M 13.703125 289 L 701.453125 289 L 701.453125 511.953125 L 13.703125 511.953125 Z M 13.703125 289 " clip-rule="nonzero"/></clipPath><clipPath id="aa0898832a"><path d="M 120.015625 42.734375 L 593 42.734375 L 593 568.636719 L 120.015625 568.636719 Z M 120.015625 42.734375 " clip-rule="nonzero"/></clipPath></defs><path fill="#006dd3" d="M 566 503.441406 C 567.050781 508.910156 572.3125 498.390625 579.15625 481.03125 C 578.628906 485.03125 577.261719 485.652344 576.734375 491.027344 C 576.417969 494.382812 575.472656 503.324219 579.894531 505.753906 C 583.050781 507.53125 587.472656 505.230469 589.15625 504.273438 C 592.3125 506.375 601.15625 511.742188 613.363281 511.332031 C 621.679688 511.015625 627.996094 508.175781 631.363281 506.28125 C 632.625 507.429688 639.679688 513.53125 649.886719 512.6875 C 662.730469 511.742188 669.257812 500.695312 669.675781 499.757812 C 675.148438 502.167969 681.570312 501.429688 686.308594 497.75 C 693.464844 492.277344 692.832031 483.546875 692.832031 483.019531 C 691.570312 481.125 687.675781 475.972656 680.519531 473.550781 C 670.097656 470.078125 661.152344 475.339844 659.78125 476.183594 C 657.257812 475.035156 652.203125 473.140625 645.679688 473.457031 C 639.257812 473.761719 634.414062 475.972656 631.996094 477.234375 C 629.890625 476.296875 625.890625 474.71875 620.730469 474.917969 C 617.152344 475.035156 614.207031 475.972656 612.3125 476.707031 C 614.839844 474.394531 618.417969 470.511719 620.628906 464.925781 C 625.257812 452.828125 618.523438 445.578125 621.785156 433.574219 C 624.730469 422.644531 631.679688 424.316406 636.625 412.964844 C 643.152344 397.917969 639.785156 374.25 625.679688 367.292969 C 623.363281 366.148438 620.941406 365.503906 618.628906 365.304688 L 629.046875 330.378906 C 629.785156 326.265625 631.152344 315.859375 625.257812 305.863281 C 623.996094 303.761719 618.207031 293.964844 611.574219 294.609375 C 606.101562 295.132812 602.523438 302.5 598.945312 312.175781 C 588.945312 338.890625 586.839844 360.886719 586.839844 360.886719 C 583.472656 396.015625 576.207031 393.59375 569.789062 434.214844 C 567.261719 450.3125 560.316406 474.394531 566 503.441406 Z M 149.285156 505.019531 C 148.234375 510.488281 142.96875 499.96875 136.128906 482.609375 C 136.65625 486.609375 138.023438 487.230469 138.550781 492.605469 C 138.867188 495.960938 139.8125 504.902344 135.390625 507.332031 C 132.234375 509.109375 127.8125 506.808594 126.128906 505.851562 C 122.972656 507.953125 114.125 513.320312 101.914062 512.910156 C 93.601562 512.59375 87.285156 509.753906 83.917969 507.859375 C 82.65625 509.007812 75.601562 515.109375 65.390625 514.265625 C 52.550781 513.320312 46.027344 502.273438 45.601562 501.335938 C 40.128906 503.746094 33.710938 503.007812 28.976562 499.328125 C 21.816406 493.855469 22.445312 485.125 22.445312 484.597656 C 23.710938 482.703125 27.605469 477.550781 34.765625 475.128906 C 45.183594 471.65625 54.128906 476.917969 55.5 477.761719 C 58.023438 476.613281 63.074219 474.71875 69.601562 475.035156 C 76.023438 475.339844 80.863281 477.550781 83.285156 478.8125 C 85.390625 477.875 89.390625 476.296875 94.546875 476.496094 C 98.128906 476.613281 101.074219 477.550781 102.96875 478.285156 C 100.441406 475.972656 96.867188 472.089844 94.652344 466.503906 C 90.023438 454.40625 96.757812 447.15625 93.492188 435.152344 C 90.550781 424.222656 83.601562 425.894531 78.65625 414.542969 C 72.128906 399.496094 75.496094 375.828125 89.597656 368.871094 C 91.914062 367.726562 94.335938 367.082031 96.652344 366.882812 L 86.230469 331.957031 C 85.496094 327.84375 84.128906 317.4375 90.023438 307.441406 C 91.285156 305.339844 97.074219 295.542969 103.707031 296.1875 C 109.179688 296.710938 112.757812 304.078125 116.339844 313.753906 C 126.339844 340.46875 128.445312 362.464844 128.445312 362.464844 C 131.8125 397.59375 139.074219 395.171875 145.496094 435.792969 C 148.128906 451.890625 155.074219 476.085938 149.285156 505.019531 " fill-opacity="1" fill-rule="nonzero"/><g clip-path="url(#d760fc42e8)"><path fill="#000000" d="M 693.675781 493.855469 C 692.203125 494.910156 690.625 495.761719 688.9375 496.285156 L 676.414062 481.96875 C 684.308594 480.820312 692.203125 479.769531 699.992188 478.8125 C 701.253906 483.863281 698.621094 490.175781 693.675781 493.855469 Z M 677.046875 495.433594 C 676.941406 495.328125 676.730469 495.328125 676.625 495.433594 C 676.519531 495.550781 676.308594 495.644531 676.308594 495.761719 C 675.464844 497.75 674.308594 499.539062 672.941406 501.117188 C 671.886719 502.386719 670.625 503.441406 669.359375 504.273438 L 650.308594 485.964844 C 658.519531 484.597656 666.730469 483.453125 675.046875 482.179688 L 687.675781 496.601562 C 684.203125 497.339844 680.414062 497.011719 677.046875 495.433594 Z M 653.886719 508.175781 C 646.203125 507.742188 640.625 503.964844 637.996094 501.746094 C 637.890625 501.640625 637.785156 501.640625 637.574219 501.640625 C 637.46875 501.640625 637.363281 501.640625 637.257812 501.746094 C 636.207031 502.386719 634.835938 503.21875 633.046875 503.964844 L 621.890625 490.910156 C 627.257812 489.972656 632.730469 488.921875 638.101562 488.070312 C 641.574219 487.4375 645.152344 486.914062 648.625 486.292969 L 668.097656 505.019531 C 662.519531 508.269531 656.097656 508.269531 653.886719 508.175781 Z M 617.996094 506.164062 C 613.679688 505.640625 609.679688 504.273438 605.785156 501.863281 C 604.417969 501.335938 600.101562 499.441406 598.523438 495.328125 C 605.890625 493.855469 613.257812 492.394531 620.628906 491.027344 L 631.890625 504.273438 C 628.3125 505.753906 623.46875 506.902344 617.996094 506.164062 Z M 588.3125 503.441406 L 601.050781 459.558594 L 629.679688 447.039062 C 629.996094 450.839844 629.785156 454.824219 627.890625 459.558594 C 625.996094 464.515625 622.730469 469.027344 618.417969 473.027344 C 612.628906 473.984375 605.996094 476.296875 601.363281 481.96875 C 599.679688 483.976562 595.367188 489.238281 597.15625 495.117188 C 597.679688 496.90625 598.628906 498.273438 599.785156 499.441406 C 596.207031 503.125 591.679688 504.273438 588.3125 503.441406 Z M 587.261719 503.007812 C 586.839844 502.800781 586.3125 502.597656 585.996094 502.273438 C 583.472656 500.378906 583.050781 496.8125 582.945312 495.644531 C 582.417969 491.34375 583.890625 487.964844 585.15625 485.335938 C 585.367188 484.808594 585.578125 484.28125 585.785156 483.863281 C 587.890625 478.929688 587.050781 475.339844 585.996094 470.921875 C 585.261719 467.765625 584.417969 464.292969 584.3125 459.253906 C 584.207031 456.308594 584.417969 454.203125 584.839844 452.101562 L 598.207031 465.449219 Z M 582.628906 488.070312 L 577.261719 499.757812 C 576.207031 501.019531 574.417969 502.484375 573.367188 502.484375 C 577.367188 468.195312 583.472656 433.785156 591.472656 400.117188 C 599.46875 366.769531 609.574219 333.535156 621.46875 301.332031 C 621.574219 301.015625 621.46875 300.699219 621.152344 300.605469 C 620.835938 300.488281 620.523438 300.605469 620.417969 300.921875 C 608.523438 333.101562 598.417969 366.453125 590.417969 399.90625 C 582.417969 433.164062 576.417969 467.238281 572.417969 501.335938 C 572.3125 500.808594 572.210938 499.96875 572.3125 498.707031 C 574.207031 450.089844 575.261719 425.683594 580.417969 406.429688 C 581.472656 402.445312 582.207031 399.90625 583.15625 396.867188 C 584.3125 392.859375 585.683594 388.449219 588.101562 379.394531 C 589.683594 373.511719 591.050781 368.871094 592.101562 365.191406 C 594.3125 357.511719 595.679688 352.882812 596.523438 346.988281 C 597.261719 341.308594 605.890625 297.449219 616.628906 291.230469 C 617.890625 290.496094 619.152344 290.398438 620.417969 290.925781 C 632.625 295.871094 635.679688 313.230469 632.519531 323.421875 C 629.679688 332.691406 624.523438 355.511719 623.679688 358.992188 C 613.574219 359.402344 603.15625 366.453125 598.945312 374.5625 C 597.050781 378.128906 596.945312 380.65625 596.628906 385.820312 C 596.417969 390.027344 596.101562 395.910156 594.628906 405.378906 C 593.679688 411.269531 592.839844 415.375 591.785156 420.632812 C 589.050781 433.890625 586.839844 440.9375 585.472656 445.671875 C 583.789062 451.046875 582.945312 453.679688 583.15625 459.464844 C 583.367188 464.515625 584.207031 468.292969 584.945312 471.351562 C 585.996094 475.773438 586.734375 479.023438 584.734375 483.546875 C 584.523438 483.976562 584.3125 484.503906 584.101562 485.03125 C 583.578125 485.765625 583.050781 486.914062 582.628906 488.070312 Z M 630.730469 360.980469 C 644.203125 365.503906 649.574219 386.230469 645.257812 401.074219 C 643.46875 407.175781 640.625 409.902344 637.574219 412.847656 C 636.101562 414.320312 634.625 415.6875 633.257812 417.582031 L 612.523438 419.488281 L 625.574219 374.5625 C 625.679688 374.25 625.46875 373.921875 625.152344 373.816406 C 624.835938 373.722656 624.523438 373.921875 624.417969 374.25 L 619.574219 390.871094 L 601.574219 372.238281 C 607.785156 363.925781 620.628906 357.617188 630.730469 360.980469 Z M 592.207031 424.105469 C 592.417969 423.054688 592.628906 421.90625 592.945312 420.738281 C 593.996094 415.476562 594.839844 411.386719 595.785156 405.484375 C 597.261719 395.910156 597.574219 390.027344 597.785156 385.820312 C 598.101562 380.875 598.207031 378.339844 599.890625 375.089844 C 600.207031 374.449219 600.628906 373.816406 601.050781 373.195312 L 619.363281 392.132812 L 611.363281 420.011719 L 606.207031 437.992188 Z M 605.679688 439.265625 L 598.523438 464.199219 L 585.050781 450.722656 C 585.367188 449.261719 585.890625 447.777344 586.523438 445.882812 C 587.785156 441.78125 589.683594 435.886719 591.890625 425.472656 Z M 629.363281 426.210938 C 627.785156 432.425781 628.417969 437.371094 629.046875 442.105469 C 629.257812 443.359375 629.363281 444.527344 629.46875 445.671875 L 601.363281 457.980469 L 612.207031 420.632812 L 632.417969 418.75 C 631.257812 420.738281 630.207031 423.167969 629.363281 426.210938 Z M 604.101562 493.015625 C 602.101562 493.445312 600.207031 493.75 598.207031 494.183594 C 597.050781 489.121094 600.839844 484.386719 602.3125 482.609375 C 606.101562 478.074219 611.363281 475.773438 616.3125 474.605469 Z M 627.996094 473.339844 C 632.101562 473.339844 636.3125 473.761719 640.308594 474.8125 C 640.519531 474.8125 640.730469 474.8125 640.835938 474.71875 C 641.890625 473.667969 643.679688 472.289062 646.097656 471.132812 L 635.257812 487.132812 C 630.417969 487.964844 625.46875 488.804688 620.523438 489.765625 L 620.417969 489.765625 C 615.363281 490.699219 610.417969 491.648438 605.46875 492.605469 L 617.679688 474.195312 C 622.101562 473.457031 625.890625 473.457031 627.996094 473.339844 Z M 648.203125 470.511719 C 649.574219 470.078125 650.941406 469.773438 652.625 469.554688 C 658.097656 469.132812 662.308594 471.132812 664.414062 472.40625 C 664.625 472.5 664.835938 472.5 664.941406 472.40625 C 667.363281 471.238281 669.886719 470.300781 672.414062 469.773438 L 664.203125 482.496094 C 655.46875 483.863281 646.730469 485.238281 637.996094 486.703125 C 637.679688 486.816406 637.363281 486.816406 637.046875 486.914062 Z M 673.992188 469.554688 C 676.203125 469.132812 678.308594 469.027344 680.519531 469.132812 C 693.570312 469.773438 698.097656 474.078125 699.570312 477.761719 C 691.464844 478.8125 683.359375 479.863281 675.253906 481.03125 L 674.941406 481.03125 C 671.886719 481.441406 668.835938 481.875 665.675781 482.398438 Z M 700.832031 477.664062 C 698.726562 471.65625 691.886719 468.40625 680.519531 467.882812 C 678.203125 467.765625 675.886719 467.976562 673.570312 468.40625 L 673.359375 468.40625 C 670.414062 468.933594 667.363281 469.871094 664.625 471.238281 C 662.414062 469.871094 657.992188 467.882812 652.414062 468.40625 C 650.625 468.5 649.046875 468.933594 647.679688 469.34375 L 647.574219 469.34375 C 644.203125 470.511719 641.785156 472.289062 640.308594 473.550781 C 636.3125 472.5 632.101562 472.089844 627.996094 472.089844 C 626.3125 472.089844 623.574219 472.089844 620.417969 472.5 C 624.3125 468.722656 627.152344 464.398438 628.941406 459.78125 C 630.941406 454.519531 631.046875 450.089844 630.730469 445.988281 C 630.625 444.621094 630.417969 443.253906 630.207031 441.894531 C 629.574219 437.257812 628.941406 432.425781 630.417969 426.417969 C 631.257812 422.957031 632.519531 420.421875 633.996094 418.433594 C 635.363281 416.53125 636.835938 415.164062 638.308594 413.585938 C 641.363281 410.640625 644.414062 407.703125 646.308594 401.277344 C 650.203125 387.808594 646.203125 364.980469 630.941406 359.835938 C 628.941406 359.089844 626.730469 358.785156 624.628906 358.785156 C 625.574219 354.460938 630.519531 332.578125 633.363281 323.539062 C 636.519531 313.113281 633.890625 295.019531 620.523438 289.558594 C 618.941406 288.917969 617.257812 289.03125 615.679688 289.96875 C 604.3125 296.492188 595.785156 340.582031 594.945312 346.683594 C 594.207031 352.472656 592.839844 357.089844 590.628906 364.664062 C 589.578125 368.347656 588.207031 373.082031 586.628906 378.867188 C 584.207031 387.808594 582.839844 392.332031 581.683594 396.339844 C 580.839844 399.382812 580 402.011719 578.945312 405.90625 C 573.683594 425.15625 572.734375 449.671875 570.839844 498.390625 C 570.734375 500.285156 570.839844 502.484375 572.210938 503.21875 L 572.3125 503.21875 C 572.628906 503.324219 572.839844 503.441406 573.15625 503.441406 C 575.15625 503.441406 577.578125 500.808594 578.101562 500.285156 L 578.207031 500.167969 L 581.472656 493.015625 C 581.472656 493.855469 581.472656 494.707031 581.578125 495.644531 C 581.789062 496.90625 582.207031 500.90625 585.15625 503.125 C 585.789062 503.535156 586.417969 503.851562 587.261719 504.175781 C 587.261719 504.175781 587.367188 504.273438 587.472656 504.273438 L 587.578125 504.273438 C 588.523438 504.585938 589.472656 504.703125 590.628906 504.703125 C 593.890625 504.703125 597.679688 503.21875 600.734375 500.0625 C 602.628906 501.640625 604.628906 502.484375 605.363281 502.800781 C 609.257812 505.230469 613.46875 506.808594 617.996094 507.21875 C 626.941406 508.269531 633.996094 504.902344 637.679688 502.695312 C 640.519531 505.019531 646.203125 508.699219 653.886719 509.109375 L 655.257812 509.109375 C 658.414062 509.109375 664.308594 508.585938 669.570312 505.324219 C 669.675781 505.324219 669.78125 505.230469 669.78125 505.230469 C 671.257812 504.273438 672.625 503.125 673.886719 501.746094 C 675.253906 500.285156 676.308594 498.484375 677.148438 496.601562 C 680.941406 498.179688 685.148438 498.390625 688.9375 497.339844 C 690.832031 496.8125 692.726562 495.855469 694.414062 494.707031 C 699.992188 490.59375 702.832031 483.230469 700.832031 477.664062 Z M 143.074219 502.914062 C 139.074219 468.933594 133.078125 434.835938 125.078125 401.484375 C 117.074219 368.03125 106.96875 334.796875 95.074219 302.5 C 94.96875 302.183594 94.652344 302.066406 94.335938 302.183594 C 94.019531 302.277344 93.917969 302.59375 94.019531 302.910156 C 105.914062 335.113281 116.023438 368.347656 124.023438 401.695312 C 132.023438 435.265625 138.128906 469.773438 142.128906 504.0625 C 141.074219 504.0625 139.285156 502.597656 138.234375 501.335938 L 132.867188 489.648438 C 132.445312 488.394531 131.917969 487.34375 131.496094 486.386719 C 131.285156 485.859375 131.078125 485.441406 130.867188 484.914062 C 128.867188 480.296875 129.707031 477.140625 130.65625 472.710938 C 131.390625 469.660156 132.234375 465.976562 132.445312 460.832031 C 132.65625 455.046875 131.8125 452.414062 130.128906 447.039062 C 128.65625 442.421875 126.445312 435.363281 123.8125 422 C 122.761719 416.742188 121.917969 412.648438 120.972656 406.746094 C 119.5 397.277344 119.183594 391.398438 118.972656 387.1875 C 118.652344 382.023438 118.546875 379.507812 116.652344 375.921875 C 112.335938 367.726562 102.019531 360.773438 91.914062 360.359375 C 91.179688 356.890625 86.023438 334.058594 83.074219 324.800781 C 79.917969 314.597656 83.074219 297.332031 95.179688 292.28125 C 96.441406 291.757812 97.703125 291.863281 98.972656 292.597656 C 109.707031 298.816406 118.335938 342.6875 119.078125 348.355469 C 119.917969 354.257812 121.183594 358.878906 123.496094 366.558594 C 124.550781 370.238281 125.917969 374.867188 127.496094 380.761719 C 129.917969 389.820312 131.285156 394.238281 132.445312 398.234375 C 133.285156 401.277344 134.128906 403.800781 135.179688 407.796875 C 140.339844 426.945312 141.390625 451.363281 143.285156 500.0625 C 143.285156 501.429688 143.179688 502.273438 143.074219 502.914062 Z M 132.445312 497.339844 C 132.339844 498.484375 131.8125 502.074219 129.390625 503.964844 C 128.972656 504.273438 128.550781 504.492188 128.128906 504.703125 L 117.285156 467.144531 L 130.65625 453.773438 C 131.078125 455.878906 131.285156 457.980469 131.183594 460.925781 C 130.972656 465.871094 130.234375 469.460938 129.496094 472.617188 C 128.445312 477.140625 127.601562 480.601562 129.707031 485.554688 C 129.917969 485.964844 130.128906 486.492188 130.339844 487.019531 C 131.496094 489.648438 133.078125 493.015625 132.445312 497.339844 Z M 115.597656 501.019531 C 116.757812 499.851562 117.703125 498.484375 118.230469 496.695312 C 119.917969 490.816406 115.597656 485.554688 114.019531 483.546875 C 109.390625 477.96875 102.757812 475.65625 96.96875 474.605469 C 92.546875 470.605469 89.390625 466.09375 87.496094 461.136719 C 85.707031 456.402344 85.390625 452.414062 85.707031 448.617188 L 114.335938 461.136719 L 127.078125 505.019531 C 123.601562 505.851562 119.078125 504.796875 115.597656 501.019531 Z M 109.390625 503.535156 C 105.707031 505.851562 101.601562 507.332031 97.285156 507.859375 C 91.8125 508.480469 86.96875 507.429688 83.285156 505.953125 L 94.546875 492.699219 C 101.914062 494.066406 109.390625 495.433594 116.652344 497.011719 C 115.179688 501.019531 110.863281 503.007812 109.390625 503.535156 Z M 78.023438 503.324219 C 77.8125 503.21875 77.496094 503.21875 77.285156 503.324219 C 74.65625 505.542969 69.074219 509.320312 61.390625 509.753906 C 59.183594 509.847656 52.65625 509.847656 46.972656 506.480469 L 66.441406 487.753906 C 70.023438 488.28125 73.496094 488.921875 76.96875 489.542969 C 82.339844 490.5 87.8125 491.4375 93.183594 492.394531 L 82.230469 505.542969 C 80.550781 504.796875 79.074219 503.964844 78.023438 503.324219 Z M 42.445312 502.800781 C 41.078125 501.222656 39.917969 499.441406 39.078125 497.433594 C 38.972656 497.339844 38.867188 497.128906 38.761719 497.128906 L 38.550781 497.128906 C 38.449219 497.128906 38.339844 497.128906 38.339844 497.222656 C 34.972656 498.800781 31.183594 499.117188 27.707031 498.390625 L 40.339844 483.976562 C 48.550781 485.125 56.867188 486.386719 65.074219 487.753906 L 46.027344 506.070312 C 44.761719 505.019531 43.496094 503.964844 42.445312 502.796875 Z M 26.445312 497.863281 C 24.765625 497.339844 23.1875 496.488281 21.710938 495.433594 C 16.65625 491.753906 14.132812 485.441406 15.394531 480.390625 C 23.289062 481.347656 31.078125 482.398438 38.972656 483.546875 Z M 34.765625 470.710938 C 36.871094 470.605469 39.078125 470.828125 41.289062 471.132812 L 49.5 483.976562 C 46.445312 483.546875 43.394531 483.019531 40.238281 482.609375 L 39.917969 482.609375 C 31.816406 481.441406 23.710938 480.390625 15.605469 479.339844 C 17.183594 475.65625 21.710938 471.351562 34.765625 470.710938 Z M 50.445312 474.078125 C 50.65625 474.195312 50.867188 474.195312 50.972656 474.078125 C 52.96875 472.816406 57.179688 470.828125 62.757812 471.238281 C 64.339844 471.351562 65.816406 471.65625 67.179688 472.183594 L 78.339844 488.597656 C 78.023438 488.492188 77.707031 488.492188 77.394531 488.394531 C 68.757812 486.914062 59.917969 485.554688 51.179688 484.1875 L 42.972656 471.449219 C 45.5 472.089844 48.023438 472.929688 50.445312 474.078125 Z M 99.074219 476.183594 C 104.019531 477.351562 109.28125 479.652344 113.074219 484.1875 C 114.546875 485.964844 118.335938 490.699219 117.175781 495.761719 C 115.179688 495.328125 113.28125 495.023438 111.285156 494.59375 Z M 74.335938 476.390625 C 74.445312 476.496094 74.65625 476.613281 74.863281 476.496094 C 78.863281 475.445312 83.074219 474.917969 87.179688 475.035156 C 89.390625 475.035156 93.183594 475.128906 97.390625 475.867188 L 109.597656 494.277344 C 104.652344 493.332031 99.597656 492.394531 94.652344 491.4375 L 94.546875 491.4375 C 89.601562 490.5 84.761719 489.648438 79.917969 488.804688 L 69.074219 472.816406 C 71.496094 473.984375 73.285156 475.445312 74.335938 476.390625 Z M 82.867188 420.421875 L 103.074219 422.316406 L 113.808594 459.664062 L 85.707031 447.367188 C 85.8125 446.199219 86.023438 444.9375 86.125 443.777344 C 86.757812 439.042969 87.394531 434.101562 85.8125 427.902344 C 85.179688 424.746094 84.128906 422.433594 82.867188 420.421875 Z M 123.496094 427.167969 C 125.8125 437.464844 127.601562 443.472656 128.867188 447.566406 C 129.496094 449.46875 129.917969 451.046875 130.339844 452.414062 L 116.863281 465.871094 L 109.597656 440.84375 Z M 109.28125 439.570312 L 96.023438 393.710938 L 114.335938 374.773438 C 114.757812 375.394531 115.070312 376.027344 115.496094 376.667969 C 117.175781 379.917969 117.390625 382.453125 117.601562 387.398438 C 117.808594 391.703125 118.125 397.488281 119.601562 407.0625 C 120.550781 412.964844 121.394531 417.171875 122.445312 422.316406 C 122.65625 423.484375 122.972656 424.632812 123.183594 425.683594 Z M 77.707031 414.425781 C 74.65625 411.480469 71.8125 408.753906 70.023438 402.652344 C 65.707031 387.925781 71.078125 367.199219 84.546875 362.558594 C 86.652344 361.824219 88.863281 361.507812 91.078125 361.625 L 91.390625 361.625 C 99.917969 361.824219 108.757812 367.082031 113.597656 373.722656 L 95.597656 392.332031 L 90.761719 375.710938 C 90.652344 375.394531 90.335938 375.183594 90.023438 375.300781 C 89.707031 375.394531 89.496094 375.710938 89.601562 376.027344 L 102.65625 420.949219 L 81.917969 419.054688 C 80.652344 417.382812 79.179688 415.898438 77.707031 414.425781 Z M 136.234375 407.703125 C 135.179688 403.707031 134.339844 401.074219 133.496094 398.121094 C 132.339844 394.121094 130.972656 389.703125 128.550781 380.65625 C 126.972656 374.773438 125.601562 370.136719 124.550781 366.453125 C 122.339844 358.878906 120.972656 354.257812 120.234375 348.472656 C 119.394531 342.476562 110.863281 298.386719 99.496094 291.757812 C 97.917969 290.808594 96.230469 290.703125 94.652344 291.335938 C 81.285156 296.808594 78.65625 314.902344 81.8125 325.328125 C 84.546875 334.363281 89.601562 356.246094 90.550781 360.570312 C 88.445312 360.570312 86.234375 360.886719 84.234375 361.625 C 68.972656 366.769531 64.972656 389.597656 68.867188 403.0625 C 70.761719 409.492188 73.8125 412.4375 76.867188 415.375 C 78.445312 416.855469 79.917969 418.320312 81.179688 420.210938 C 82.65625 422.210938 83.8125 424.746094 84.761719 428.21875 C 86.234375 434.214844 85.601562 439.042969 84.96875 443.683594 C 84.761719 445.050781 84.652344 446.410156 84.445312 447.777344 C 84.019531 451.890625 84.128906 456.308594 86.234375 461.570312 C 88.019531 466.1875 90.863281 470.511719 94.761719 474.289062 C 91.601562 473.867188 88.972656 473.867188 87.179688 473.867188 C 83.074219 473.867188 78.863281 474.289062 74.863281 475.339844 C 73.390625 474.078125 70.96875 472.289062 67.601562 471.132812 L 67.496094 471.132812 C 66.023438 470.605469 64.546875 470.300781 62.757812 470.183594 C 57.179688 469.773438 52.761719 471.65625 50.550781 473.027344 C 47.707031 471.65625 44.761719 470.710938 41.707031 470.183594 L 41.605469 470.183594 C 39.285156 469.773438 36.972656 469.554688 34.65625 469.660156 C 23.289062 470.183594 16.445312 473.457031 14.339844 479.453125 C 12.34375 485.03125 15.183594 492.394531 20.867188 496.601562 C 22.550781 497.863281 24.339844 498.707031 26.34375 499.230469 C 30.128906 500.285156 34.339844 500.0625 38.132812 498.484375 C 38.972656 500.378906 40.128906 502.074219 41.390625 503.652344 C 42.660156 505.113281 44.023438 506.164062 45.5 507.121094 C 45.601562 507.21875 45.601562 507.21875 45.707031 507.21875 C 50.972656 510.488281 56.867188 511.015625 60.027344 511.015625 L 61.390625 511.015625 C 69.074219 510.585938 74.761719 506.902344 77.601562 504.585938 C 78.757812 505.324219 80.234375 506.070312 82.023438 506.808594 C 85.914062 508.386719 91.179688 509.753906 97.285156 509.007812 C 101.703125 508.480469 106.023438 507.007812 109.707031 504.585938 C 110.550781 504.273438 112.546875 503.441406 114.441406 501.746094 C 117.492188 505.019531 121.183594 506.480469 124.445312 506.480469 C 125.601562 506.480469 126.65625 506.28125 127.601562 505.953125 C 128.445312 505.640625 129.183594 505.324219 129.8125 504.796875 C 132.65625 502.695312 133.179688 498.707031 133.390625 497.339844 C 133.496094 496.382812 133.496094 495.550781 133.496094 494.707031 L 136.761719 501.863281 L 136.867188 501.957031 C 137.390625 502.597656 139.8125 505.113281 141.8125 505.113281 C 142.128906 505.113281 142.445312 505.019531 142.65625 504.902344 L 142.761719 504.902344 C 144.128906 504.175781 144.234375 501.957031 144.128906 500.0625 C 142.445312 451.457031 141.496094 427.050781 136.234375 407.703125 " fill-opacity="1" fill-rule="nonzero"/></g><path fill="#ffffff" d="M 177.914062 215.273438 L 126.65625 215.273438 L 126.65625 506.902344 L 152.128906 506.902344 L 124.972656 531.941406 L 131.496094 539.621094 L 160.546875 518.265625 C 162.652344 514.488281 164.757812 510.6875 166.757812 506.902344 L 167.917969 506.902344 L 166.757812 552.457031 L 177.808594 552.457031 L 188.335938 506.902344 L 520.421875 506.902344 L 533.054688 561.304688 L 544.105469 561.304688 L 542.84375 513.433594 C 545.367188 517.949219 547.894531 522.589844 550.316406 527.113281 L 579.367188 548.457031 L 585.890625 540.789062 L 556.421875 513.53125 C 556.527344 511.332031 556.632812 509.226562 556.734375 507.007812 L 581.050781 507.007812 L 581.050781 215.273438 L 177.914062 215.273438 " fill-opacity="1" fill-rule="nonzero"/><path fill="#006dd3" d="M 238.542969 520.273438 L 238.542969 493.226562 L 405.796875 493.226562 L 405.796875 538.570312 L 405.902344 538.570312 L 377.167969 538.570312 L 377.167969 565.605469 L 238.226562 565.605469 M 238.332031 565.605469 L 209.808594 565.605469 L 209.808594 520.273438 L 238.542969 520.273438 " fill-opacity="1" fill-rule="nonzero"/><path fill="#006dd3" d="M 161.8125 403.0625 L 293.066406 403.0625 L 293.066406 412.847656 L 161.8125 412.847656 Z M 272.859375 297.765625 L 217.492188 297.765625 L 217.492188 290.398438 L 272.859375 290.398438 Z M 297.382812 286.074219 L 217.492188 286.074219 L 217.492188 278.710938 L 297.382812 278.710938 Z M 233.703125 466.714844 C 233.703125 471.132812 230.019531 474.8125 225.597656 474.8125 L 187.179688 474.8125 C 187.179688 473.339844 187.074219 471.878906 186.757812 470.394531 C 186.230469 468.503906 185.703125 466.714844 185.179688 464.925781 C 184.757812 462.9375 184.546875 460.925781 184.546875 458.824219 L 184.546875 458.613281 L 225.703125 458.613281 C 230.019531 458.613281 233.703125 462.292969 233.703125 466.714844 Z M 298.015625 474.917969 L 249.597656 474.917969 C 245.597656 474.917969 242.4375 471.65625 242.4375 467.765625 L 242.4375 465.871094 C 242.4375 461.882812 245.703125 458.726562 249.597656 458.726562 L 298.015625 458.726562 C 302.015625 458.726562 305.171875 461.980469 305.171875 465.871094 L 305.171875 467.765625 C 305.277344 471.65625 302.015625 474.917969 298.015625 474.917969 Z M 161.8125 368.871094 L 306.015625 368.871094 L 306.015625 392.449219 L 161.8125 392.449219 Z M 449.269531 419.6875 L 391.484375 377.816406 L 340.539062 444.9375 L 321.277344 317.113281 L 562.421875 281.234375 L 580.945312 380.875 L 513.792969 332.890625 Z M 570.523438 272.609375 L 314.539062 310.074219 L 336.328125 458.9375 L 592.3125 421.476562 L 570.523438 272.609375 " fill-opacity="1" fill-rule="nonzero"/><path fill="#006dd3" d="M 560.839844 241.890625 L 542.632812 241.890625 C 541.683594 241.890625 540.949219 241.164062 540.949219 240.207031 C 540.949219 239.257812 541.683594 238.535156 542.632812 238.535156 L 560.839844 238.535156 C 561.789062 238.535156 562.523438 239.257812 562.523438 240.207031 C 562.523438 241.164062 561.789062 241.890625 560.839844 241.890625 Z M 560.839844 247.792969 L 542.632812 247.792969 C 541.683594 247.792969 540.949219 247.042969 540.949219 246.097656 C 540.949219 245.160156 541.683594 244.414062 542.632812 244.414062 L 560.839844 244.414062 C 561.789062 244.414062 562.523438 245.160156 562.523438 246.097656 C 562.523438 247.042969 561.789062 247.792969 560.839844 247.792969 Z M 560.839844 253.578125 L 542.632812 253.578125 C 541.683594 253.578125 540.949219 252.832031 540.949219 251.882812 C 540.949219 250.949219 541.683594 250.199219 542.632812 250.199219 L 560.839844 250.199219 C 561.789062 250.199219 562.523438 250.949219 562.523438 251.882812 C 562.523438 252.832031 561.789062 253.578125 560.839844 253.578125 Z M 530.316406 247.886719 C 530.316406 251.359375 527.476562 254.199219 524 254.199219 L 187.496094 254.199219 C 184.019531 254.199219 181.179688 251.359375 181.179688 247.886719 L 181.179688 242.003906 C 181.179688 238.535156 184.019531 235.691406 187.496094 235.691406 L 524.105469 235.691406 C 527.578125 235.691406 530.421875 238.535156 530.421875 242.003906 Z M 126.65625 231.054688 L 126.65625 260.101562 L 581.050781 260.101562 L 581.050781 231.054688 L 126.65625 231.054688 " fill-opacity="1" fill-rule="nonzero"/><path fill="#006dd3" d="M 194.652344 426.324219 L 230.648438 431.679688 L 230.648438 427.261719 L 204.546875 417.910156 L 183.074219 397.710938 L 154.757812 393.28125 C 152.234375 393.28125 144.445312 392.859375 137.179688 387.074219 C 127.8125 379.507812 126.867188 368.660156 126.761719 366.882812 L 123.289062 366.882812 C 122.761719 370.765625 122.234375 378.867188 125.8125 388.019531 C 128.65625 395.382812 132.972656 400.222656 135.707031 402.855469 Z M 516.421875 435.152344 L 480.425781 440.527344 L 480.425781 436.109375 L 506.527344 426.734375 L 528 406.535156 L 556.316406 402.128906 C 558.839844 402.128906 566.628906 401.695312 573.894531 395.910156 C 583.261719 388.335938 584.207031 377.5 584.3125 375.710938 L 587.996094 375.710938 C 588.523438 379.601562 589.050781 387.714844 585.472656 396.867188 C 582.628906 404.230469 578.3125 409.0625 575.578125 411.691406 L 516.421875 435.152344 " fill-opacity="1" fill-rule="nonzero"/><path fill="#ffffff" d="M 229.914062 431.375 C 231.703125 431.785156 234.332031 432.3125 237.492188 432.523438 C 241.703125 432.835938 246.542969 432.636719 246.648438 432.113281 C 246.648438 431.785156 244.753906 431.152344 235.492188 430.007812 C 237.492188 428.628906 238.4375 427.578125 238.226562 427.050781 C 237.914062 426.210938 235.175781 426.210938 229.914062 427.050781 Z M 126.128906 366.558594 C 127.390625 360.359375 127.8125 357.089844 127.078125 356.890625 C 126.761719 356.773438 126.234375 357.300781 125.496094 358.5625 C 125.496094 353.523438 125.183594 352.355469 124.761719 352.25 C 124.128906 352.15625 123.183594 355.3125 122.761719 357.414062 C 121.917969 361.191406 122.128906 364.347656 122.445312 366.558594 Z M 173.496094 375.828125 C 173.496094 378.867188 177.707031 380.875 181.808594 383.074219 C 183.601562 378.023438 180.652344 369.082031 180.652344 369.082031 C 177.179688 370.566406 173.496094 372.984375 173.496094 375.828125 Z M 481.160156 435.792969 C 476.003906 434.941406 473.160156 434.941406 472.847656 435.792969 C 472.636719 436.414062 473.582031 437.371094 475.582031 438.738281 C 466.425781 439.886719 464.425781 440.527344 464.425781 440.84375 C 464.425781 441.371094 469.371094 441.578125 473.582031 441.253906 C 476.742188 441.054688 479.371094 440.527344 481.160156 440.097656 Z M 588.628906 375.394531 C 588.945312 373.195312 589.050781 370.039062 588.3125 366.242188 C 587.890625 364.136719 586.945312 360.980469 586.3125 361.097656 C 585.996094 361.097656 585.578125 362.246094 585.578125 367.410156 C 584.839844 366.148438 584.3125 365.621094 583.996094 365.714844 C 583.367188 365.925781 583.683594 369.1875 584.945312 375.394531 Z M 281.382812 153.105469 C 283.804688 149.519531 284.855469 147.527344 284.4375 147.210938 C 284.226562 147 283.59375 147.316406 282.648438 148.058594 C 283.488281 144.054688 283.488281 141.949219 282.960938 141.738281 C 282.121094 141.421875 280.121094 144.371094 276.960938 150.476562 Z M 298.960938 134.058594 C 305.804688 131.847656 309.066406 130.058594 308.960938 128.90625 C 308.855469 128.164062 307.488281 127.746094 304.75 127.429688 C 310.328125 124.484375 311.382812 123.429688 311.277344 123.011719 C 310.960938 122.378906 306.433594 123.117188 302.644531 125.222656 C 299.804688 126.800781 297.804688 128.800781 296.644531 130.269531 Z M 292.644531 205.183594 L 313.066406 214.746094 C 315.59375 213.285156 318.011719 211.800781 320.539062 210.222656 C 317.800781 207.496094 313.699219 203.605469 308.328125 199.28125 C 299.910156 192.652344 295.699219 189.285156 290.332031 188.128906 C 279.171875 185.816406 268.648438 193.914062 264.648438 197.386719 L 228.542969 217.691406 L 260.648438 249.894531 L 293.804688 274.1875 L 298.960938 267.992188 L 278.4375 241.046875 L 260.015625 211.589844 L 264.015625 218.019531 C 273.382812 213.808594 283.277344 209.390625 292.644531 205.183594 Z M 530.421875 377.816406 C 530.421875 377.816406 527.476562 386.875 529.265625 391.808594 C 533.367188 389.597656 537.578125 387.597656 537.578125 384.558594 C 537.578125 381.8125 533.894531 379.394531 530.421875 377.816406 Z M 227.175781 123.535156 C 225.808594 125.636719 224.230469 127.003906 223.070312 127.949219 C 221.070312 127.632812 219.175781 128.6875 218.546875 130.371094 C 217.808594 132.367188 218.859375 134.894531 221.175781 135.738281 C 221.175781 136.265625 221.386719 138.261719 219.914062 140.050781 C 218.859375 141.3125 217.597656 141.835938 217.070312 142.050781 C 217.597656 143.941406 218.230469 145.835938 218.753906 147.730469 C 219.808594 148.050781 222.125 148.671875 225.070312 148.050781 C 227.386719 147.519531 229.070312 146.46875 229.914062 145.734375 L 229.914062 139.207031 C 230.964844 138.578125 232.4375 137.417969 233.597656 135.523438 C 236.332031 131.105469 235.070312 125.953125 234.125 122.164062 C 233.597656 119.851562 232.4375 116.378906 229.808594 112.488281 C 230.019531 114.171875 230.125 118.90625 227.175781 123.535156 Z M 542.84375 507.007812 L 543.789062 507.007812 L 542.949219 513.53125 Z M 542.84375 507.007812 " fill-opacity="1" fill-rule="nonzero"/><g clip-path="url(#aa0898832a)"><path fill="#000000" d="M 292.4375 277.25 L 213.808594 277.25 L 213.808594 283.445312 L 292.4375 283.445312 Z M 293.59375 284.613281 L 212.546875 284.613281 L 212.546875 275.976562 L 293.59375 275.976562 Z M 591.679688 420.949219 L 587.683594 393.910156 C 587.367188 394.964844 587.050781 396.015625 586.628906 397.066406 C 584.417969 402.652344 580.945312 407.914062 576.628906 412.121094 C 577.261719 412.648438 577.789062 413.269531 578.3125 414.015625 C 579.996094 416.332031 581.050781 419.371094 581.261719 422.527344 Z M 580.417969 428.101562 C 576.523438 438.625 560 439.476562 559.472656 447.777344 C 558.945312 454.824219 570 457.5625 569.15625 464.292969 C 568.734375 467.449219 565.894531 470.511719 562.210938 472.710938 C 562.210938 472.816406 562.316406 472.816406 562.316406 472.929688 C 562.421875 474.605469 562.421875 476.296875 562.105469 477.875 C 561.578125 481.441406 560.316406 484.914062 558.210938 488.070312 L 557.367188 506.375 L 580.417969 506.375 Z M 556.105469 513.960938 C 556 513.84375 555.894531 513.644531 555.894531 513.53125 L 557.15625 487.964844 C 557.15625 487.871094 557.15625 487.753906 557.261719 487.660156 C 559.261719 484.597656 560.628906 481.347656 561.050781 477.875 C 561.261719 476.390625 561.261719 474.917969 561.261719 473.457031 C 557.261719 475.5625 552.421875 476.496094 548.632812 475.445312 C 549.15625 477.023438 549.578125 479.242188 549.050781 481.96875 C 548.527344 484.597656 547.261719 486.492188 546.210938 487.660156 L 543.367188 506.164062 L 543.578125 513.433594 L 550.945312 526.890625 L 579.472656 547.835938 L 585.261719 541 Z M 533.683594 560.777344 L 543.578125 560.777344 L 542.210938 505.953125 L 545.050781 487.226562 C 545.050781 487.132812 545.15625 487.019531 545.15625 486.914062 C 546.105469 485.859375 547.261719 484.074219 547.789062 481.652344 C 548.316406 479.023438 547.789062 476.824219 547.261719 475.445312 C 547.15625 475.339844 547.261719 475.128906 547.261719 475.035156 C 547.050781 474.917969 546.84375 474.8125 546.632812 474.71875 C 541.261719 471.878906 543.683594 465.660156 537.789062 457.5625 C 535.578125 454.519531 533.054688 452.417969 530.527344 450.839844 L 520.527344 504.378906 Z M 481.792969 439.792969 L 517.160156 434.53125 C 517.371094 434.53125 517.582031 434.53125 517.6875 434.742188 C 524 428.628906 537.367188 422.738281 536.527344 414.953125 C 536.105469 411.269531 532.738281 408.964844 529.371094 406.746094 C 529.371094 406.746094 529.371094 406.863281 529.265625 406.863281 L 507.792969 427.050781 C 507.6875 427.167969 507.6875 427.167969 507.582031 427.167969 L 481.898438 436.414062 L 481.898438 439.792969 Z M 480.53125 440 L 480.53125 436.519531 C 474.214844 435.46875 473.476562 436.203125 473.371094 436.203125 C 473.371094 436.203125 473.476562 436.84375 475.898438 438.519531 C 476.109375 438.625 476.214844 438.949219 476.109375 439.148438 C 476.003906 439.359375 475.898438 439.570312 475.582031 439.570312 C 470.636719 440.203125 467.898438 440.726562 466.425781 440.9375 C 468.109375 441.054688 470.742188 441.054688 473.476562 440.9375 C 475.898438 440.9375 478.320312 440.527344 480.53125 440 Z M 530.84375 378.65625 C 530.210938 380.65625 528.632812 386.96875 529.683594 390.964844 L 530 390.871094 C 533.683594 388.976562 537.160156 387.074219 537.160156 384.652344 C 537.054688 382.757812 534.84375 380.65625 530.84375 378.65625 Z M 336.855469 458.203125 L 464.320312 439.570312 C 464.636719 439.570312 464.953125 439.792969 464.953125 440.097656 L 464.953125 440.316406 C 466.109375 439.886719 468.636719 439.476562 474.109375 438.738281 C 472.636719 437.570312 472.109375 436.730469 472.425781 435.886719 C 472.742188 434.941406 474.109375 434.308594 481.160156 435.46875 L 506.949219 426.113281 L 528.210938 406.125 C 524.84375 404.023438 521.894531 401.917969 522.105469 398.972656 C 522.316406 396.132812 525.476562 394.027344 528.949219 392.226562 C 528.84375 392.132812 528.738281 392.132812 528.738281 391.921875 C 526.949219 386.757812 529.683594 378.023438 529.894531 377.5 C 529.683594 377.40625 529.472656 377.289062 529.265625 377.195312 C 529.789062 374.773438 530.421875 372.238281 530.949219 369.828125 C 545.578125 368.25 551.789062 371.503906 554.632812 375.183594 C 560.316406 382.664062 553.472656 393.5 556.734375 401.390625 L 556.945312 401.390625 C 560.628906 401.390625 567.683594 400.550781 574.105469 395.289062 C 582.734375 388.335938 584.101562 378.550781 584.3125 375.5 C 582.628906 367.503906 582.839844 365.832031 583.472656 365.304688 L 575.15625 308.589844 L 548 276.292969 L 331.171875 307.96875 L 321.066406 346.042969 C 320.960938 346.367188 320.75 346.464844 320.539062 346.464844 L 320.433594 346.464844 Z M 320.222656 344.992188 L 329.90625 308.378906 L 315.171875 310.484375 Z M 331.589844 307.011719 L 547.261719 275.449219 L 546.105469 274.09375 L 464.53125 215.914062 L 437.691406 215.914062 L 332.222656 304.601562 Z M 439.058594 214.746094 L 462.742188 214.746094 L 452.953125 207.8125 C 451.480469 207.699219 450.214844 207.171875 448.953125 206.445312 Z M 570.105469 273.347656 L 549.578125 276.40625 L 575.050781 306.707031 Z M 466.53125 215.914062 L 546.84375 273.136719 L 546.945312 273.25 L 548.632812 275.238281 L 570.523438 272.082031 C 570.628906 272.082031 570.839844 272.082031 570.945312 272.199219 C 571.050781 272.292969 571.15625 272.398438 571.15625 272.609375 L 576.417969 308.378906 L 579.472656 312.0625 C 579.683594 312.273438 579.683594 312.703125 579.367188 312.902344 C 579.15625 313.113281 578.734375 313.113281 578.523438 312.796875 L 576.734375 310.597656 L 580.523438 336.375 L 580.523438 215.914062 Z M 584.207031 366.769531 C 584.207031 367.503906 584.3125 369.609375 585.367188 374.972656 L 587.996094 374.972656 C 588.3125 372.144531 588.207031 369.304688 587.578125 366.558594 C 587.15625 364.78125 586.628906 363.203125 586.3125 362.351562 C 586.207031 362.992188 585.996094 364.453125 586.101562 367.609375 C 586.101562 367.9375 585.890625 368.136719 585.683594 368.136719 C 585.472656 368.25 585.15625 368.136719 585.050781 367.820312 C 584.734375 367.410156 584.417969 366.980469 584.207031 366.769531 Z M 575.789062 411.269531 C 579.996094 407.175781 583.367188 402.128906 585.472656 396.65625 C 586.207031 394.648438 586.839844 392.753906 587.261719 390.871094 L 587.261719 390.753906 C 588.628906 385.085938 588.523438 379.917969 588.101562 376.238281 L 585.578125 376.238281 C 585.261719 379.824219 583.578125 389.503906 574.945312 396.339844 C 568.417969 401.601562 561.261719 402.539062 557.367188 402.652344 C 557.683594 403.273438 558.105469 403.90625 558.628906 404.433594 C 563.367188 409.691406 570.417969 407.484375 575.789062 411.269531 C 575.683594 411.269531 575.789062 411.269531 575.789062 411.269531 Z M 400.535156 499.539062 L 234.4375 499.539062 L 234.4375 516.160156 L 373.484375 516.160156 C 373.800781 516.160156 374.113281 516.476562 374.113281 516.800781 L 374.113281 543.722656 L 400.535156 543.722656 Z M 372.957031 517.421875 L 206.863281 517.421875 L 206.863281 561.609375 L 372.957031 561.609375 Z M 190.546875 495.550781 L 180.546875 441.988281 C 178.019531 443.566406 175.496094 445.671875 173.285156 448.734375 C 167.390625 456.835938 169.8125 462.9375 164.441406 465.871094 C 164.230469 465.976562 164.023438 466.09375 163.8125 466.1875 C 163.8125 466.304688 163.917969 466.503906 163.8125 466.617188 C 163.285156 467.976562 162.757812 470.183594 163.285156 472.816406 C 163.8125 475.339844 164.96875 477.023438 165.917969 478.074219 C 166.023438 478.191406 166.023438 478.285156 166.023438 478.402344 L 168.863281 497.128906 L 168.652344 504.796875 L 168.652344 504.902344 L 167.496094 551.929688 L 177.390625 551.929688 Z M 167.496094 504.492188 L 167.707031 497.128906 L 164.863281 478.71875 C 163.8125 477.550781 162.546875 475.65625 162.023438 473.027344 C 161.496094 470.394531 161.917969 468.082031 162.441406 466.503906 C 158.652344 467.554688 153.8125 466.617188 149.8125 464.515625 C 149.707031 465.976562 149.8125 467.449219 150.023438 468.933594 C 150.550781 472.40625 151.8125 475.65625 153.8125 478.71875 C 153.917969 478.8125 153.917969 478.929688 153.917969 479.023438 L 155.179688 504.585938 C 155.179688 504.796875 155.074219 504.902344 154.96875 505.019531 L 125.707031 531.941406 L 131.496094 538.777344 L 160.023438 517.855469 Z M 151.917969 506.375 L 154.023438 504.378906 L 152.863281 479.242188 C 150.757812 476.085938 149.496094 472.710938 148.96875 469.027344 C 148.757812 467.449219 148.65625 465.777344 148.757812 464.082031 C 148.757812 463.988281 148.757812 463.871094 148.863281 463.871094 C 145.179688 461.664062 142.339844 458.613281 141.917969 455.457031 C 141.074219 448.734375 152.128906 445.988281 151.601562 438.949219 C 150.96875 430.324219 133.179688 429.679688 130.234375 417.792969 C 129.183594 413.375 130.339844 408.441406 132.761719 405.074219 C 133.285156 404.328125 133.917969 403.707031 134.445312 403.179688 C 131.707031 400.433594 129.285156 397.277344 127.289062 393.910156 L 127.289062 506.28125 L 151.917969 506.28125 Z M 125.601562 387.808594 C 127.707031 393.28125 131.078125 398.328125 135.285156 402.445312 L 135.285156 402.539062 C 140.65625 398.761719 147.707031 400.867188 152.339844 395.699219 C 152.863281 395.171875 153.285156 394.554688 153.601562 393.910156 C 149.707031 393.804688 142.550781 392.859375 136.023438 387.597656 C 127.496094 380.761719 125.8125 371.09375 125.390625 367.503906 L 122.867188 367.503906 C 122.445312 372.34375 122.445312 379.707031 125.601562 387.808594 Z M 122.972656 366.242188 L 125.601562 366.242188 C 126.761719 360.773438 126.867188 358.785156 126.761719 358.035156 C 126.550781 358.257812 126.339844 358.5625 126.023438 359.195312 C 125.917969 359.402344 125.601562 359.519531 125.390625 359.519531 C 125.183594 359.402344 124.972656 359.195312 124.972656 358.992188 C 124.972656 355.933594 124.867188 354.460938 124.761719 353.734375 C 124.339844 354.574219 123.8125 356.152344 123.496094 357.941406 C 122.867188 360.570312 122.65625 363.402344 122.972656 366.242188 Z M 126.128906 356.679688 L 126.128906 356.984375 L 126.234375 356.890625 C 126.128906 356.890625 126.128906 356.773438 126.128906 356.679688 Z M 180.230469 369.828125 C 176.125 371.816406 174.019531 373.921875 174.019531 375.828125 C 174.019531 378.246094 177.496094 380.128906 181.179688 382.023438 L 181.496094 382.140625 C 182.441406 378.128906 180.863281 371.816406 180.230469 369.828125 Z M 181.914062 398.015625 C 178.546875 400.222656 175.179688 402.539062 174.757812 406.21875 C 173.917969 413.898438 187.285156 419.800781 193.597656 426 C 193.703125 425.894531 193.914062 425.800781 194.125 425.800781 L 229.492188 431.058594 L 229.492188 427.789062 L 203.808594 418.53125 C 203.703125 418.53125 203.703125 418.433594 203.597656 418.433594 L 182.125 398.234375 C 181.914062 398.121094 181.914062 398.015625 181.914062 398.015625 Z M 230.542969 427.789062 L 230.542969 431.257812 C 232.859375 431.785156 235.175781 432.113281 237.597656 432.3125 C 240.332031 432.523438 242.964844 432.523438 244.648438 432.3125 C 243.175781 431.996094 240.542969 431.585938 235.492188 430.945312 C 235.28125 430.945312 235.070312 430.734375 234.964844 430.535156 C 234.859375 430.324219 234.964844 430.007812 235.175781 429.890625 C 237.597656 428.21875 237.703125 427.578125 237.703125 427.578125 C 237.597656 427.378906 236.859375 426.734375 230.542969 427.789062 Z M 186.019531 465.039062 L 188.863281 480.074219 L 219.386719 480.074219 C 223.492188 480.074219 226.964844 476.707031 226.964844 472.5 C 226.964844 468.292969 223.597656 464.925781 219.386719 464.925781 L 186.019531 464.925781 Z M 313.488281 214.746094 Z M 271.59375 214.746094 L 312.75 214.746094 L 292.644531 205.277344 Z M 454.320312 56.097656 C 454.320312 49.367188 448.847656 43.894531 442.109375 43.894531 C 439.691406 43.894531 437.269531 44.632812 435.269531 46 C 431.902344 48.3125 429.902344 51.996094 429.902344 56.097656 C 429.902344 62.832031 435.375 68.300781 442.109375 68.300781 C 448.847656 68.300781 454.320312 62.832031 454.320312 56.097656 Z M 592.945312 421.378906 C 592.945312 421.683594 592.734375 422 592.417969 422 L 581.683594 423.578125 L 581.683594 506.902344 C 581.683594 507.21875 581.367188 507.53125 581.050781 507.53125 L 557.367188 507.53125 L 557.050781 513.214844 L 586.523438 540.355469 C 586.734375 540.566406 586.734375 541 586.523438 541.199219 L 586.417969 541.316406 L 590.3125 545.933594 C 582.417969 558.558594 577.789062 564.554688 576.3125 563.933594 C 575.15625 563.40625 576.105469 558.453125 579.261719 549.089844 C 579.15625 549.089844 579.15625 549.089844 579.050781 548.984375 L 550 527.636719 C 549.894531 527.636719 549.894531 527.523438 549.789062 527.417969 L 543.472656 515.84375 L 544.632812 561.304688 C 544.632812 561.515625 544.527344 561.609375 544.421875 561.714844 C 544.316406 561.828125 544.105469 561.925781 544 561.925781 L 543.894531 561.925781 L 542.738281 567.617188 C 525.371094 568.972656 516.527344 568.972656 516.316406 567.617188 C 516.105469 566.449219 521.476562 564.460938 532.421875 561.515625 L 520.105469 507.53125 L 401.796875 507.53125 L 401.796875 544.25 C 401.796875 544.566406 401.480469 544.882812 401.167969 544.882812 L 374.113281 544.882812 L 374.113281 562.132812 C 374.113281 562.449219 373.800781 562.765625 373.484375 562.765625 L 206.230469 562.765625 C 205.914062 562.765625 205.597656 562.449219 205.597656 562.132812 L 205.597656 516.800781 C 205.597656 516.476562 205.914062 516.160156 206.230469 516.160156 L 233.28125 516.160156 L 233.28125 507.53125 L 188.96875 507.53125 L 178.546875 552.667969 C 189.390625 555.613281 194.757812 557.621094 194.652344 558.769531 C 194.441406 560.136719 185.597656 560.136719 168.230469 558.769531 L 167.074219 553.097656 L 166.96875 553.097656 C 166.757812 553.097656 166.652344 552.980469 166.546875 552.886719 C 166.441406 552.769531 166.335938 552.570312 166.335938 552.457031 L 167.496094 507.007812 L 161.179688 518.578125 C 161.179688 518.695312 161.074219 518.695312 160.96875 518.789062 L 131.917969 540.148438 C 131.917969 540.148438 131.8125 540.148438 131.707031 540.261719 C 134.867188 549.613281 135.8125 554.558594 134.65625 555.085938 C 133.285156 555.824219 128.550781 549.824219 120.65625 537.105469 L 124.550781 532.464844 L 124.445312 532.371094 C 124.234375 532.152344 124.234375 531.730469 124.445312 531.53125 L 150.445312 507.53125 L 126.550781 507.53125 C 126.234375 507.53125 125.917969 507.21875 125.917969 506.902344 L 125.917969 393.710938 C 125.917969 393.386719 126.234375 393.070312 126.550781 393.070312 L 126.65625 393.070312 C 125.8125 391.492188 124.972656 389.820312 124.339844 388.125 C 120.972656 379.601562 121.078125 371.816406 121.707031 366.769531 C 121.289062 363.613281 121.394531 360.570312 122.128906 357.511719 C 123.394531 351.722656 124.445312 351.828125 124.761719 351.945312 C 125.390625 352.039062 125.8125 352.472656 125.917969 356.457031 L 125.917969 215.273438 C 125.917969 214.957031 126.234375 214.652344 126.550781 214.652344 L 224.648438 214.652344 C 224.964844 214.652344 225.28125 214.957031 225.28125 215.273438 C 225.28125 215.589844 224.964844 215.914062 224.648438 215.914062 L 127.183594 215.914062 L 127.183594 356.5625 C 128.023438 356.890625 128.445312 357.824219 126.550781 366.882812 C 126.761719 369.828125 128.128906 379.707031 136.761719 386.664062 C 143.179688 391.808594 150.234375 392.660156 153.917969 392.753906 L 154.128906 392.753906 C 157.390625 384.863281 150.652344 374.039062 156.234375 366.558594 C 159.074219 362.875 165.285156 359.519531 179.914062 361.191406 C 180.441406 363.613281 181.074219 366.148438 181.601562 368.558594 C 181.390625 368.660156 181.179688 368.777344 180.96875 368.871094 C 181.179688 369.398438 183.914062 378.128906 182.125 383.285156 C 182.125 383.390625 182.019531 383.507812 181.914062 383.601562 C 185.285156 385.390625 188.441406 387.492188 188.757812 390.34375 C 188.96875 393.28125 186.019531 395.289062 182.652344 397.488281 L 203.914062 417.476562 L 229.703125 426.851562 C 236.859375 425.683594 238.121094 426.324219 238.4375 427.261719 C 238.753906 427.996094 238.226562 428.839844 236.753906 430.101562 C 247.070312 431.46875 246.964844 431.996094 246.964844 432.636719 C 246.964844 433.257812 246.332031 433.574219 243.386719 433.6875 L 241.175781 433.6875 C 239.808594 433.6875 238.4375 433.6875 237.175781 433.574219 C 234.648438 433.363281 232.019531 433.046875 229.492188 432.425781 L 194.230469 427.167969 C 195.808594 428.957031 196.652344 430.734375 196.335938 432.523438 C 195.597656 437.160156 188.441406 437.371094 181.285156 441.464844 C 181.285156 441.578125 181.390625 441.578125 181.390625 441.675781 L 185.597656 463.988281 L 219.175781 463.988281 C 224.019531 463.988281 227.914062 467.882812 227.914062 472.710938 C 227.914062 477.550781 224.019531 481.441406 219.175781 481.441406 L 188.863281 481.441406 L 191.492188 495.550781 L 191.492188 495.761719 L 188.96875 506.480469 L 232.964844 506.480469 L 232.964844 499.117188 C 232.964844 498.800781 233.28125 498.484375 233.597656 498.484375 L 401.167969 498.484375 C 401.480469 498.484375 401.796875 498.800781 401.796875 499.117188 L 401.796875 506.480469 L 519.894531 506.480469 L 519.476562 504.585938 L 519.476562 504.378906 L 529.578125 450.523438 C 529.578125 450.40625 529.578125 450.40625 529.683594 450.3125 C 522.527344 446.199219 515.371094 445.988281 514.632812 441.371094 C 514.316406 439.476562 515.160156 437.6875 516.738281 435.992188 L 481.476562 441.253906 C 478.949219 441.894531 476.425781 442.199219 473.792969 442.421875 C 472.742188 442.515625 471.164062 442.515625 469.6875 442.515625 C 467.269531 442.515625 464.847656 442.421875 464.320312 441.894531 C 464.214844 441.78125 464.109375 441.578125 464.109375 441.371094 C 464.109375 441.253906 464.109375 441.054688 464.214844 440.9375 L 336.644531 459.558594 L 336.539062 459.558594 C 336.433594 459.558594 336.328125 459.558594 336.222656 459.464844 C 336.117188 459.347656 336.011719 459.253906 336.011719 459.035156 L 314.855469 316.058594 L 164.652344 316.058594 C 164.335938 316.058594 164.023438 315.742188 164.023438 315.429688 C 164.023438 315.121094 164.335938 314.808594 164.652344 314.808594 L 314.644531 314.808594 L 313.90625 310.074219 C 313.90625 309.746094 314.117188 309.429688 314.433594 309.429688 L 330.328125 307.117188 L 331.171875 304.078125 C 331.171875 303.960938 331.273438 303.855469 331.378906 303.761719 L 435.902344 215.914062 L 339.0625 215.914062 C 338.960938 215.914062 338.855469 215.914062 338.855469 215.796875 C 337.484375 216.964844 329.695312 217.375 315.59375 217.0625 L 314.433594 215.703125 C 314.328125 215.796875 314.222656 215.796875 314.117188 215.796875 L 269.070312 215.796875 L 265.070312 217.585938 L 279.066406 240.113281 L 299.59375 267.035156 L 299.59375 267.140625 C 307.699219 262.730469 312.222656 261.035156 312.960938 262.089844 C 313.90625 263.351562 309.277344 268.925781 299.066406 278.511719 L 294.332031 273.976562 C 294.226562 274.09375 294.015625 274.1875 293.910156 274.1875 C 293.804688 274.1875 293.699219 274.1875 293.59375 274.09375 L 260.4375 249.675781 L 228.230469 217.492188 C 228.019531 217.28125 228.019531 216.851562 228.230469 216.640625 C 228.4375 216.441406 228.859375 216.441406 229.070312 216.640625 L 261.175781 248.84375 L 293.804688 272.820312 L 298.328125 267.464844 L 278.015625 240.835938 L 259.59375 211.273438 C 259.386719 210.96875 259.488281 210.652344 259.804688 210.445312 C 260.121094 210.222656 260.4375 210.328125 260.648438 210.652344 L 264.4375 216.640625 C 264.4375 216.640625 264.542969 216.535156 264.648438 216.535156 L 268.753906 214.746094 L 292.644531 204.015625 C 292.855469 203.910156 292.960938 203.910156 293.171875 204.015625 L 313.382812 213.484375 L 319.90625 209.601562 C 316.222656 205.917969 312.328125 202.4375 308.328125 199.28125 C 300.015625 192.652344 295.804688 189.402344 290.644531 188.234375 C 280.332031 186.027344 270.4375 193.085938 265.488281 197.386719 C 265.277344 197.597656 264.859375 197.597656 264.648438 197.292969 C 264.4375 197.070312 264.4375 196.652344 264.753906 196.453125 C 269.910156 191.917969 280.226562 184.761719 290.960938 186.984375 C 296.433594 188.128906 300.644531 191.507812 309.171875 198.230469 C 313.488281 201.597656 317.59375 205.277344 321.382812 209.171875 C 321.488281 209.277344 321.59375 209.484375 321.59375 209.695312 C 331.695312 211.800781 337.484375 213.484375 339.066406 214.746094 C 339.167969 214.652344 339.273438 214.535156 339.484375 214.535156 L 437.796875 214.535156 L 448.636719 205.394531 C 448.109375 204.960938 447.585938 204.4375 447.164062 203.910156 C 445.375 201.597656 444.847656 198.441406 445.796875 195.714844 C 446.53125 193.609375 448.003906 192.128906 449.375 190.980469 C 450.003906 190.339844 450.636719 189.8125 451.164062 189.179688 C 452.53125 187.394531 453.375 185.078125 453.585938 182.5625 L 453.585938 182.449219 C 448.953125 181.605469 445.480469 177.609375 445.480469 172.78125 C 445.480469 167.519531 449.691406 163.195312 454.847656 162.984375 L 454.847656 61.574219 C 452.742188 66.203125 448.109375 69.464844 442.636719 69.464844 C 435.269531 69.464844 429.269531 63.464844 429.269531 56.101562 C 429.269531 53.46875 430.007812 51.054688 431.375 48.949219 L 311.171875 124.171875 C 310.433594 124.800781 309.066406 125.644531 306.539062 127.011719 C 308.433594 127.429688 309.277344 127.957031 309.488281 128.800781 C 309.699219 129.957031 308.539062 131.429688 299.277344 134.585938 L 285.171875 147.417969 C 285.171875 148.152344 284.4375 149.636719 281.910156 153.410156 C 281.804688 153.632812 281.59375 153.632812 281.382812 153.632812 C 281.277344 153.632812 281.171875 153.632812 281.066406 153.515625 C 280.753906 153.316406 280.753906 152.992188 280.960938 152.675781 C 282.75 150.046875 283.488281 148.675781 283.804688 147.941406 C 283.59375 148.058594 283.382812 148.257812 283.066406 148.46875 C 282.855469 148.582031 282.648438 148.675781 282.4375 148.46875 C 282.226562 148.371094 282.121094 148.058594 282.121094 147.84375 C 282.855469 143.945312 282.855469 142.683594 282.75 142.265625 C 282.332031 142.582031 280.960938 144.054688 277.488281 150.570312 C 277.382812 150.886719 276.960938 151.003906 276.648438 150.78125 C 276.332031 150.6875 276.226562 150.253906 276.4375 149.949219 C 281.171875 141.003906 282.332031 140.582031 283.171875 140.898438 C 283.910156 141.214844 284.332031 142.265625 283.488281 146.472656 C 283.804688 146.367188 284.015625 146.265625 284.332031 146.265625 L 298.539062 133.324219 C 298.539062 133.324219 298.644531 133.324219 298.644531 133.214844 C 298.644531 133.214844 298.75 133.214844 298.75 133.113281 C 308.222656 129.957031 308.328125 128.691406 308.328125 128.589844 C 308.328125 128.589844 308.117188 127.957031 304.644531 127.535156 C 304.433594 127.535156 304.222656 127.328125 304.117188 127.011719 C 304.117188 126.800781 304.222656 126.484375 304.433594 126.378906 C 304.960938 126.0625 305.488281 125.851562 306.011719 125.535156 L 310.222656 122.90625 C 308.855469 123.011719 305.804688 123.75 302.855469 125.328125 C 300.644531 126.585938 298.75 128.164062 297.066406 130.269531 C 296.855469 130.484375 296.433594 130.585938 296.226562 130.378906 C 296.015625 130.167969 295.910156 129.742188 296.121094 129.535156 C 297.910156 127.328125 299.910156 125.644531 302.328125 124.378906 C 305.804688 122.488281 310.011719 121.542969 311.277344 121.960938 C 311.382812 122.066406 311.488281 122.066406 311.59375 122.171875 L 432.320312 46.632812 C 432.425781 46.527344 432.636719 46.527344 432.847656 46.527344 C 433.375 46.003906 434.007812 45.476562 434.636719 45.054688 C 436.847656 43.582031 439.480469 42.738281 442.109375 42.738281 C 448.109375 42.738281 453.269531 46.738281 454.847656 52.207031 C 455.164062 52.207031 455.480469 52.523438 455.480469 52.839844 L 455.480469 163.191406 C 460.53125 163.621094 464.636719 167.832031 464.636719 172.976562 C 464.636719 177.824219 461.164062 181.8125 456.53125 182.65625 L 456.53125 182.96875 C 456.320312 186.242188 455.164062 189.398438 453.375 191.597656 C 452.742188 192.4375 451.898438 193.175781 451.164062 193.816406 C 450.003906 194.867188 448.953125 195.804688 448.53125 197.171875 C 448.003906 198.75 448.320312 200.65625 449.375 202.023438 C 450.742188 203.8125 452.953125 204.652344 455.164062 204.125 C 457.480469 203.601562 459.164062 201.800781 459.6875 199.488281 C 459.898438 198.550781 460.847656 197.910156 461.792969 198.121094 C 462.742188 198.339844 463.371094 199.277344 463.164062 200.222656 C 462.320312 203.90625 459.582031 206.757812 455.898438 207.492188 C 455.582031 207.589844 455.269531 207.589844 454.953125 207.691406 L 464.742188 214.648438 L 580.945312 214.648438 C 581.261719 214.648438 581.578125 214.953125 581.578125 215.269531 L 581.578125 339.839844 C 581.578125 340.148438 581.367188 340.460938 580.945312 340.460938 L 584.628906 365.710938 C 584.734375 365.828125 584.734375 365.828125 584.839844 365.921875 C 584.945312 361.410156 585.367188 360.976562 586.101562 360.882812 C 587.050781 360.765625 587.890625 362.671875 588.734375 366.449219 C 589.367188 369.507812 589.472656 372.550781 589.15625 375.707031 C 589.679688 379.597656 589.785156 384.964844 588.417969 391.078125 Z M 193.492188 243.582031 C 193.492188 241.890625 192.125 240.425781 190.335938 240.425781 C 188.652344 240.425781 187.179688 241.785156 187.179688 243.582031 C 187.179688 245.257812 188.546875 246.738281 190.335938 246.738281 C 192.125 246.738281 193.492188 245.371094 193.492188 243.582031 Z M 194.652344 243.582031 C 194.652344 244.414062 194.441406 245.160156 194.019531 245.78125 L 197.597656 248.726562 C 197.808594 248.9375 197.914062 249.371094 197.703125 249.578125 C 197.597656 249.675781 197.386719 249.78125 197.28125 249.78125 C 197.179688 249.78125 196.96875 249.78125 196.863281 249.675781 L 193.285156 246.738281 C 192.546875 247.476562 191.492188 247.886719 190.335938 247.886719 C 187.914062 247.886719 186.019531 245.992188 186.019531 243.582031 C 186.019531 241.164062 187.914062 239.257812 190.335938 239.257812 C 192.757812 239.257812 194.652344 241.257812 194.652344 243.582031 Z M 213.703125 295.019531 L 267.804688 295.019531 L 267.804688 288.820312 L 213.703125 288.820312 Z M 212.546875 287.652344 L 269.070312 287.652344 L 269.070312 296.28125 L 212.546875 296.28125 Z M 233.597656 122.164062 C 232.964844 119.535156 231.914062 116.90625 230.542969 114.484375 C 230.4375 117.011719 229.808594 120.484375 227.703125 123.742188 C 226.542969 125.53125 225.175781 127.007812 223.386719 128.269531 C 223.28125 128.375 223.070312 128.375 222.964844 128.375 C 221.28125 128.058594 219.597656 129.003906 219.070312 130.480469 C 218.753906 131.316406 218.753906 132.265625 219.175781 133.109375 C 219.597656 134.054688 220.441406 134.789062 221.386719 135.105469 C 221.597656 135.214844 221.808594 135.421875 221.808594 135.632812 C 221.914062 136.476562 221.914062 138.472656 220.441406 140.367188 C 219.597656 141.417969 218.648438 142.050781 217.808594 142.363281 L 219.28125 147.207031 C 220.648438 147.625 222.648438 147.9375 224.964844 147.414062 C 226.542969 147.097656 228.019531 146.363281 229.386719 145.417969 L 229.386719 139.105469 C 229.386719 138.894531 229.492188 138.683594 229.703125 138.578125 C 231.175781 137.628906 232.332031 136.476562 233.175781 135.105469 C 235.703125 130.898438 234.4375 125.847656 233.597656 122.164062 Z M 204.019531 129.953125 C 203.070312 121.535156 209.386719 115.960938 210.019531 115.433594 C 210.757812 109.542969 215.28125 105.125 220.753906 104.597656 C 225.28125 104.179688 229.703125 106.59375 232.019531 110.800781 C 232.4375 113.015625 232.753906 115.117188 233.175781 117.328125 C 233.808594 118.90625 234.332031 120.378906 234.753906 122.0625 C 235.703125 125.953125 236.964844 131.214844 234.125 135.949219 C 233.175781 137.421875 232.019531 138.683594 230.542969 139.632812 L 230.542969 145.835938 C 230.542969 146.046875 230.4375 146.152344 230.332031 146.261719 C 228.859375 147.414062 227.070312 148.253906 225.28125 148.671875 C 224.335938 148.894531 223.386719 148.988281 222.542969 148.988281 C 220.964844 148.988281 219.597656 148.671875 218.648438 148.367188 C 218.441406 148.253906 218.335938 148.148438 218.230469 147.9375 L 217.175781 144.363281 C 210.019531 142.472656 204.863281 136.683594 204.019531 129.953125 Z M 290.960938 465.03125 L 244.332031 465.03125 C 240.226562 465.03125 236.753906 468.398438 236.753906 472.605469 C 236.753906 476.816406 240.121094 480.171875 244.332031 480.171875 L 290.960938 480.171875 C 295.066406 480.171875 298.539062 476.816406 298.539062 472.605469 C 298.539062 468.398438 295.171875 465.03125 290.960938 465.03125 Z M 244.332031 463.863281 L 290.960938 463.863281 C 295.804688 463.863281 299.699219 467.757812 299.699219 472.605469 C 299.699219 477.4375 295.804688 481.339844 290.960938 481.339844 L 244.332031 481.339844 C 239.492188 481.339844 235.597656 477.4375 235.597656 472.605469 C 235.597656 467.757812 239.492188 463.863281 244.332031 463.863281 Z M 353.90625 544.242188 L 253.804688 544.242188 L 253.804688 546.34375 L 354.011719 546.34375 L 354.011719 544.242188 Z M 342.539062 538.148438 L 253.804688 538.148438 L 253.804688 541.085938 L 342.539062 541.085938 Z M 353.90625 532.667969 L 253.804688 532.667969 L 253.804688 535.203125 L 353.90625 535.203125 Z M 229.808594 540.253906 L 219.492188 551.921875 C 220.335938 552.351562 221.175781 552.5625 222.125 552.5625 L 236.964844 552.5625 C 238.226562 552.5625 239.28125 552.132812 240.226562 551.511719 Z M 218.335938 527.722656 C 217.175781 528.777344 216.335938 530.355469 216.335938 532.046875 L 216.335938 546.871094 C 216.335938 548.765625 217.28125 550.460938 218.753906 551.511719 L 229.28125 539.613281 Z M 240.859375 550.984375 C 242.015625 549.933594 242.648438 548.449219 242.648438 546.777344 L 242.648438 531.933594 C 242.648438 530.257812 241.914062 528.679688 240.753906 527.628906 L 230.332031 539.414062 Z M 218.964844 527.199219 C 219.914062 526.671875 220.964844 526.261719 222.019531 526.261719 L 236.859375 526.261719 C 238.019531 526.261719 239.070312 526.578125 240.015625 527.199219 L 229.703125 538.886719 L 218.964844 527.199219 " fill-opacity="1" fill-rule="nonzero"/></g><path fill="#006dd3" d="M 225.070312 148.058594 C 222.230469 148.675781 219.914062 148.152344 218.753906 147.734375 C 215.703125 152.359375 212.335938 158.988281 210.859375 167.402344 C 206.230469 193.179688 223.175781 213.484375 226.125 217.0625 C 229.914062 217.375 238.226562 217.585938 247.175781 213.167969 C 258.4375 207.699219 263.804688 198.648438 265.59375 195.398438 L 247.597656 173.621094 C 250.121094 174.453125 256.859375 176.347656 264.4375 173.621094 C 277.910156 168.773438 281.277344 154.042969 281.488281 153.105469 L 276.960938 150.570312 C 275.699219 152.265625 271.59375 157.621094 264.121094 159.515625 C 259.699219 160.679688 256.015625 160.15625 253.804688 159.722656 C 259.175781 155.945312 265.070312 152.054688 271.59375 148.152344 C 281.277344 142.476562 290.4375 137.847656 298.960938 134.058594 L 296.644531 130.378906 L 229.914062 145.738281 C 228.964844 146.367188 227.386719 147.527344 225.070312 148.058594 Z M 253.386719 346.464844 L 242.121094 359.195312 C 242.964844 359.613281 243.910156 359.929688 244.964844 359.929688 L 261.070312 359.929688 C 262.4375 359.929688 263.59375 359.519531 264.648438 358.785156 Z M 240.859375 332.890625 C 239.492188 334.058594 238.648438 335.734375 238.648438 337.625 L 238.648438 353.734375 C 238.648438 355.835938 239.703125 357.617188 241.28125 358.785156 L 252.648438 345.84375 Z M 265.382812 358.257812 C 266.648438 357.089844 267.382812 355.511719 267.382812 353.734375 L 267.382812 337.625 C 267.382812 335.734375 266.542969 334.15625 265.277344 333.007812 L 254.015625 345.84375 Z M 253.386719 345.105469 L 264.648438 332.367188 C 263.699219 331.734375 262.4375 331.3125 261.175781 331.3125 L 245.070312 331.3125 C 243.808594 331.3125 242.648438 331.734375 241.703125 332.367188 Z M 214.859375 346.683594 L 203.703125 359.402344 C 204.546875 359.835938 205.492188 360.140625 206.546875 360.140625 L 222.648438 360.140625 C 224.019531 360.140625 225.175781 359.71875 226.230469 358.992188 Z M 202.441406 333.101562 C 201.074219 334.269531 200.230469 335.941406 200.230469 337.835938 L 200.230469 353.933594 C 200.230469 356.039062 201.28125 357.824219 202.863281 358.992188 L 214.230469 346.042969 Z M 226.964844 358.46875 C 228.230469 357.300781 228.964844 355.722656 228.964844 353.933594 L 228.964844 337.835938 C 228.964844 335.941406 228.125 334.363281 226.859375 333.21875 L 215.597656 346.042969 Z M 214.859375 345.316406 L 226.125 332.578125 C 225.175781 331.957031 223.914062 331.523438 222.648438 331.523438 L 206.546875 331.523438 C 205.28125 331.523438 204.125 331.957031 203.175781 332.578125 Z M 176.335938 346.464844 L 165.074219 359.195312 C 165.917969 359.613281 166.863281 359.929688 167.917969 359.929688 L 184.019531 359.929688 C 185.390625 359.929688 186.546875 359.519531 187.597656 358.785156 Z M 163.917969 332.890625 C 162.546875 334.058594 161.707031 335.734375 161.707031 337.625 L 161.707031 353.734375 C 161.707031 355.835938 162.757812 357.617188 164.335938 358.785156 L 175.707031 345.84375 Z M 188.441406 358.351562 C 189.703125 357.207031 190.441406 355.628906 190.441406 353.828125 L 190.441406 337.742188 C 190.441406 335.847656 189.597656 334.269531 188.335938 333.101562 L 176.96875 345.84375 Z M 176.335938 345.203125 L 187.597656 332.480469 C 186.652344 331.839844 185.390625 331.429688 184.125 331.429688 L 168.023438 331.429688 C 166.757812 331.429688 165.601562 331.839844 164.652344 332.480469 Z M 182.441406 269.242188 C 172.546875 269.242188 164.652344 277.25 164.652344 287.023438 C 164.652344 296.808594 172.652344 304.8125 182.441406 304.8125 C 192.230469 304.8125 200.230469 296.808594 200.230469 287.023438 C 200.230469 277.25 192.335938 269.242188 182.441406 269.242188 Z M 457.375 336.164062 C 457.375 347.621094 448.109375 356.890625 436.636719 356.890625 C 425.164062 356.890625 415.902344 347.621094 415.902344 336.164062 C 415.902344 324.6875 425.164062 315.429688 436.636719 315.429688 C 448.109375 315.429688 457.375 324.6875 457.375 336.164062 " fill-opacity="1" fill-rule="nonzero"/></svg>